PathFileType	4	(X/Y/Z)	C:/Users/opensim2020/Desktop/walking_exp_matlab/subject03_walking09_straight_03.trc																																																																																																																																											
DataRate	CameraRate	NumFrames	NumMarkers	Units	OrigDataRate	OrigDataStartFrame	OrigNumFrames																																																																																																																																							
100	100	8	47	mm	100	2843	383																																																																																																																																							
Frame#	Time	LFHD			RFHD			LBHD			RBHD			C7			T10			CLAV			STRN			RBAK			LSHO			LUPA			LELB			LFRM			LWRA			LWRB			LFIN			RSHO			RUPA			RELB			RFRM			RWRA			RWRB			RFIN			LASI			RASI			LPSI			RPSI			LTHI			LKNE			LTIB			LANK			LHEE			LTOE			RTHI			RKNE			RTIB			RANK			RHEE			RTOE			*39			*40			*41			*42			*43			*44			*45			*46		
		X1	Y1	Z1	X2	Y2	Z2	X3	Y3	Z3	X4	Y4	Z4	X5	Y5	Z5	X6	Y6	Z6	X7	Y7	Z7	X8	Y8	Z8	X9	Y9	Z9	X10	Y10	Z10	X11	Y11	Z11	X12	Y12	Z12	X13	Y13	Z13	X14	Y14	Z14	X15	Y15	Z15	X16	Y16	Z16	X17	Y17	Z17	X18	Y18	Z18	X19	Y19	Z19	X20	Y20	Z20	X21	Y21	Z21	X22	Y22	Z22	X23	Y23	Z23	X24	Y24	Z24	X25	Y25	Z25	X26	Y26	Z26	X27	Y27	Z27	X28	Y28	Z28	X29	Y29	Z29	X30	Y30	Z30	X31	Y31	Z31	X32	Y32	Z32	X33	Y33	Z33	X34	Y34	Z34	X35	Y35	Z35	X36	Y36	Z36	X37	Y37	Z37	X38	Y38	Z38	X39	Y39	Z39	X40	Y40	Z40	X41	Y41	Z41	X42	Y42	Z42	X43	Y43	Z43	X44	Y44	Z44	X45	Y45	Z45	X46	Y46	Z46	X47	Y47	Z47
																																																																																																																																														
48	0.47	-699.5202	1619.56067	-1105.98364	-716.02362	1629.56274	-973.8974	-822.85034	1565.93506	-1115.14185	-835.22955	1575.37354	-984.62329	-853.12897	1416.60205	-1049.18213	-896.71918	1106.66052	-1039.24548	-733.33026	1337.00525	-1040.12512	-695.11047	1170.43506	-1035.54968	-912.63507	1249.93323	-944.13898	-769.49072	1368.89307	-1199.51318	-796.37793	1168.65552	-1260.73804	-803.66888	1045.21997	-1266.60754	-793.32031	915.13318	-1259.88684	-792.46802	795.64539	-1223.88708	-811.12982	802.67413	-1276.65686	-811.28436	718.09753	-1261.71387	-778.375	1368.19067	-884.51385	-750.20581	1146.91382	-814.69312	-718.7486	1037.58899	-806.83472	-683.72516	905.15863	-811.10114	-646.7475	815.04987	-853.78809	-668.65173	805.89825	-805.00885	-640.25946	737.52148	-822.20874	-726.25378	939.0462	-1143.61707	-745.2702	932.90344	-907.2135	-891.2041	968.43317	-1107.54749	-899.62793	972.58557	-957.54382	-758.61884	639.50696	-1187.47607	-725.59387	465.21948	-1144.48132	-743.96576	272.5647	-1148.50659	-722.5788	63.51067	-1109.41211	-760.2486	28.36413	-1074.03918	-568.93964	30.93192	-1081.21057	-827.64417	637.95428	-869.59216	-833.42883	457.33853	-894.2995	-971.02295	318.10947	-892.26544	-1113.6488	156.32768	-936.32526	-1164.28345	160.18187	-989.94275	-1039.7887	32.44857	-958.15161	NaN	NaN	NaN	NaN	NaN	NaN	NaN	NaN	NaN	NaN	NaN	NaN	NaN	NaN	NaN	NaN	NaN	NaN	NaN	NaN	NaN	NaN	NaN	NaN
49	0.48	-692.1889	1620.10278	-1106.92102	-708.88409	1630.20813	-974.72418	-815.59003	1566.51331	-1116.07764	-828.03101	1575.98523	-985.57703	-845.78687	1417.04651	-1050.15247	-888.84259	1107.01758	-1040.59644	-725.86548	1337.67468	-1040.80298	-687.25482	1171.28186	-1036.15479	-904.92834	1250.19568	-945.20959	-761.65509	1369.74927	-1200.17944	-787.45972	1169.59106	-1262.00696	-794.1911	1046.17969	-1267.83154	-783.27393	916.07697	-1261.02039	-782.33966	796.46472	-1224.99731	-800.453	803.6145	-1278.1001	-800.77875	718.91833	-1263.224	-771.29242	1369.0304	-885.46722	-743.87689	1147.75134	-815.41229	-713.57385	1038.22974	-807.18726	-679.40356	905.56024	-810.98956	-642.50354	815.09387	-853.19348	-665.09442	806.18433	-804.67755	-637.28894	737.35101	-821.76215	-718.37122	939.30029	-1144.5072	-737.60455	933.73413	-908.23871	-883.25085	969.16656	-1108.70691	-891.82465	973.17694	-958.76074	-753.09113	639.9057	-1188.25989	-721.77808	465.14911	-1145.1261	-741.59155	272.70865	-1148.9884	-722.26172	63.28747	-1108.86597	-760.18469	28.36071	-1073.96094	-568.72784	30.73578	-1081.0481	-815.79395	637.68634	-869.62988	-818.05011	456.84662	-893.5741	-957.34509	319.89346	-891.85767	-1102.75513	160.86092	-935.90149	-1152.69189	167.63454	-990.04425	-1037.31372	33.03294	-958.42615	NaN	NaN	NaN	NaN	NaN	NaN	NaN	NaN	NaN	NaN	NaN	NaN	NaN	NaN	NaN	NaN	NaN	NaN	NaN	NaN	NaN	NaN	NaN	NaN
50	0.49	-685.04852	1620.495	-1107.64453	-701.77344	1630.62512	-975.54492	-808.41211	1566.81653	-1116.93713	-820.93207	1576.34766	-986.45074	-838.59033	1417.36084	-1051.14417	-881.1225	1107.25574	-1041.90967	-718.41425	1338.15894	-1041.43799	-679.54285	1171.81787	-1036.91174	-897.4231	1250.25464	-946.34082	-753.80005	1370.36011	-1200.77002	-778.61401	1170.35327	-1263.02234	-784.67413	1046.84302	-1269.13489	-773.05957	916.86969	-1262.35193	-770.89191	797.99097	-1227.27246	-789.53021	804.29089	-1279.58215	-789.72998	719.51917	-1264.72205	-764.36157	1369.69019	-886.26184	-737.74792	1148.35583	-815.96832	-708.38391	1038.64368	-807.45844	-675.0105	905.76135	-810.81055	-638.28662	814.94287	-852.46814	-661.49097	806.28473	-804.32184	-634.21326	737.01196	-821.10596	-710.45813	939.56201	-1145.54456	-729.98859	934.33154	-909.26215	-875.36694	969.75763	-1109.79993	-884.27087	973.42029	-959.9162	-747.15314	640.23871	-1189.22144	-717.78998	465.1235	-1145.75049	-739.16516	272.77914	-1149.44092	-721.91766	63.52335	-1108.96338	-760.17993	28.36036	-1073.91565	-568.45386	30.52456	-1080.91968	-803.89417	637.12604	-869.75714	-802.60077	456.32385	-893.04919	-943.1012	321.29782	-891.52545	-1091.16565	165.08446	-935.34869	-1140.93713	175.12883	-989.60199	-1033.59155	34.71829	-958.2243	NaN	NaN	NaN	NaN	NaN	NaN	NaN	NaN	NaN	NaN	NaN	NaN	NaN	NaN	NaN	NaN	NaN	NaN	NaN	NaN	NaN	NaN	NaN	NaN
51	0.5	-677.98663	1620.79297	-1108.34045	-694.81464	1631.00989	-976.23914	-801.24127	1566.95361	-1117.7207	-813.90283	1576.51416	-987.24866	-831.36884	1417.42249	-1052.00537	-873.46503	1107.33557	-1043.0874	-711.06256	1338.46179	-1042.07275	-672.00006	1172.13159	-1037.42712	-890.20099	1250.2179	-947.52094	-746.02368	1370.70947	-1201.35266	-769.76587	1170.7179	-1264.2605	-775.00629	1047.29932	-1270.51575	-762.66852	917.35779	-1263.6864	-760.23407	798.37927	-1228.49121	-778.27509	804.6264	-1281.0155	-778.24719	719.8938	-1266.26624	-757.53882	1370.16821	-886.88812	-731.84131	1148.69373	-816.41656	-703.29034	1038.83948	-807.61188	-670.65942	905.74133	-810.53162	-634.00537	814.61346	-851.6684	-657.74152	806.14008	-803.88983	-631.1532	736.59149	-820.30939	-702.83612	939.63245	-1146.45605	-722.19763	934.58038	-910.2948	-867.69788	970.07825	-1110.84045	-876.89319	973.26489	-960.99036	-740.979	640.56976	-1190.35291	-713.70837	465.10745	-1146.51367	-736.78339	272.85739	-1149.88525	-721.77307	63.50017	-1108.86475	-760.13458	28.33985	-1073.90662	-568.25623	30.37781	-1080.79456	-792.24158	636.49744	-869.98859	-787.28784	455.8497	-892.69824	-928.37952	322.44336	-891.10791	-1079.7865	169.71373	-934.84631	-1129.3916	182.62451	-988.9389	-1027.79028	38.07359	-957.6767	NaN	NaN	NaN	NaN	NaN	NaN	NaN	NaN	NaN	NaN	NaN	NaN	NaN	NaN	NaN	NaN	NaN	NaN	NaN	NaN	NaN	NaN	NaN	NaN
52	0.51	-670.92133	1620.9873	-1108.94983	-687.96069	1631.32141	-976.84967	-794.12012	1566.8877	-1118.3999	-806.8819	1576.51135	-987.93518	-824.22736	1417.54089	-1052.89172	-865.9129	1107.2804	-1044.11304	-703.87158	1338.62354	-1042.6377	-664.6275	1172.31311	-1037.92261	-883.15204	1250.0813	-948.7746	-738.31854	1370.79395	-1201.92261	-760.70984	1170.86108	-1265.59375	-765.34094	1047.42273	-1272.06299	-752.09082	917.59442	-1265.05969	-749.21307	798.59845	-1229.70032	-766.6626	804.78717	-1282.55139	-766.15826	719.99646	-1267.74207	-750.70929	1370.19165	-887.64789	-726.19061	1148.74597	-816.72266	-698.24304	1038.75464	-807.62897	-666.24805	905.54242	-810.25909	-629.52954	814.25397	-851.01611	-653.86169	805.83972	-803.43872	-627.61188	735.93323	-819.64899	-695.31488	939.75696	-1147.34851	-715.1803	934.58551	-910.89874	-860.24719	970.30054	-1111.70984	-869.75287	972.82269	-961.90295	-734.7865	640.89044	-1191.52075	-709.65826	464.89694	-1147.12231	-734.51959	272.93546	-1150.3468	-721.87018	63.48796	-1108.90784	-760.12866	28.38149	-1073.89673	-568.09149	30.24828	-1080.74219	-780.7572	635.7995	-870.38403	-771.99213	455.39542	-892.61548	-913.56537	323.43912	-890.55688	-1068.65649	175.0032	-934.73352	-1117.80127	189.537	-988.83331	-1019.80402	42.31826	-956.20837	NaN	NaN	NaN	NaN	NaN	NaN	NaN	NaN	NaN	NaN	NaN	NaN	NaN	NaN	NaN	NaN	NaN	NaN	NaN	NaN	NaN	NaN	NaN	NaN
53	0.52	-663.94702	1621.16931	-1109.49219	-681.07672	1631.58362	-977.44031	-787.02545	1566.77234	-1119.01184	-800.02686	1576.58618	-988.51453	-817.09961	1417.61829	-1053.7168	-858.51758	1107.22083	-1044.96667	-696.77844	1338.77319	-1043.01343	-657.4101	1172.50549	-1038.32031	-876.33856	1249.90173	-950.00037	-730.60986	1370.68738	-1202.41455	-751.7677	1170.83911	-1266.58411	-755.61084	1047.30188	-1273.35242	-741.35394	917.62354	-1266.38684	-737.86816	798.70056	-1231.02051	-754.85034	804.68677	-1284.05286	-753.79773	719.92798	-1269.22888	-744.19159	1370.19958	-888.10583	-720.6026	1148.55005	-816.97107	-693.24182	1038.48828	-807.56476	-661.8382	905.09827	-809.84399	-624.87939	813.93127	-850.38574	-649.96027	805.33917	-802.95081	-623.81952	735.38086	-819.11163	-687.84167	939.92401	-1148.21777	-707.93097	934.36774	-911.60822	-853.02258	970.48901	-1112.4751	-862.59265	972.1413	-962.72223	-728.70508	641.21399	-1192.5946	-705.50006	464.96237	-1147.88562	-732.14838	273.04648	-1150.84631	-721.72736	63.53497	-1108.80994	-760.1308	28.41226	-1073.89429	-567.85785	30.24259	-1080.82166	-769.56317	635.28638	-870.78546	-756.72571	455.06924	-892.65607	-898.8418	324.90247	-890.44769	-1057.11084	180.55804	-935.50909	-1105.82483	194.58859	-990.2663	-1008.95648	46.92921	-953.48511	NaN	NaN	NaN	NaN	NaN	NaN	NaN	NaN	NaN	NaN	NaN	NaN	NaN	NaN	NaN	NaN	NaN	NaN	NaN	NaN	NaN	NaN	NaN	NaN
54	0.53	-656.99615	1621.29102	-1109.99695	-674.29755	1631.8407	-977.87634	-779.9328	1566.66064	-1119.57043	-793.06116	1576.54358	-989.06525	-810.03839	1417.69983	-1054.45239	-851.31921	1107.21545	-1045.68274	-689.79175	1338.84131	-1043.44849	-650.39331	1172.48425	-1038.56775	-869.64594	1249.69592	-951.2688	-723.08643	1370.46741	-1202.88892	-742.70038	1170.49438	-1267.75903	-745.6637	1047.12122	-1274.91614	-730.42413	917.4281	-1267.73096	-726.41602	798.58368	-1232.23438	-742.71832	804.4856	-1285.52844	-740.8418	719.79254	-1270.66711	-737.74738	1370.02466	-888.46112	-715.36652	1148.22083	-817.09644	-688.34137	1038.10974	-807.39648	-657.3623	904.61182	-809.51123	-620.54645	813.12396	-849.58716	-645.88696	804.79053	-802.5108	-619.91705	734.73358	-818.39618	-680.60663	940.1449	-1149.13025	-700.85278	934.04889	-912.27637	-845.92548	970.7464	-1113.14465	-855.50586	971.39496	-963.40417	-722.88983	641.46991	-1193.38904	-701.37372	465.00229	-1148.48523	-729.82739	273.13058	-1151.24463	-721.59839	63.56424	-1108.71094	-760.16388	28.44133	-1073.85657	-567.7691	30.17949	-1080.69897	-758.44476	635.00916	-871.18671	-741.3045	455.0502	-892.67279	-884.30347	327.10406	-891.25311	-1045.08301	185.52968	-936.3136	-1092.90247	198.19377	-992.44873	-996.31171	51.49092	-950.05151	NaN	NaN	NaN	NaN	NaN	NaN	NaN	NaN	NaN	NaN	NaN	NaN	NaN	NaN	NaN	NaN	NaN	NaN	NaN	NaN	NaN	NaN	NaN	NaN
55	0.54	-650.03491	1621.42786	-1110.422	-667.44855	1632.1073	-978.30145	-772.89764	1566.54553	-1120.01257	-786.07452	1576.46936	-989.5918	-802.97528	1417.80554	-1055.11182	-844.19543	1107.19287	-1046.22388	-682.9267	1338.82898	-1043.69348	-643.40741	1172.46497	-1038.96619	-863.13129	1249.51746	-952.48792	-715.62518	1370.14539	-1203.34021	-733.573	1170.18091	-1268.66345	-735.61121	1046.72522	-1276.21375	-719.31598	917.27008	-1268.99841	-714.58331	798.57574	-1233.52734	-730.34973	804.24609	-1286.98889	-727.55591	719.66138	-1272.19788	-731.48114	1369.74878	-888.76794	-710.75073	1147.89246	-817.05804	-683.47858	1037.61646	-807.18768	-652.88263	904.0141	-809.09204	-616.05402	812.46613	-848.95374	-641.81067	804.15869	-802.06909	-615.77374	734.13782	-817.87537	-673.45441	940.37592	-1150.05408	-693.68658	933.75446	-912.92285	-838.97919	970.91919	-1113.6897	-848.44482	970.76862	-964.00446	-717.05212	641.92719	-1193.83936	-697.20477	465.0361	-1148.96301	-727.48718	273.20483	-1151.59949	-721.47516	63.61712	-1108.63855	-760.17816	28.46113	-1073.79797	-567.64856	30.09144	-1080.66211	-747.37775	635.16357	-871.57355	-725.89685	455.57278	-892.65918	-869.92847	329.6882	-892.43146	-1031.58167	189.28658	-937.18591	-1079.11719	200.84778	-994.32172	-982.09814	55.53536	-946.53833	NaN	NaN	NaN	NaN	NaN	NaN	NaN	NaN	NaN	NaN	NaN	NaN	NaN	NaN	NaN	NaN	NaN	NaN	NaN	NaN	NaN	NaN	NaN	NaN
